<?xml version="1.0" encoding="UTF-8"?>
<svg version="1.1" xmlns="http://www.w3.org/2000/svg" width="645" height="387">
<path d="M0 0 C0.74185547 -0.020625 1.48371094 -0.04125 2.24804688 -0.0625 C6.84073073 -0.09521725 9.63651254 0.38985102 13.4375 3.25 C13.09030681 7.41631833 12.53382014 10.30620943 10.4140625 13.921875 C8.05441926 18.51808656 7.89994559 22.40595122 8.0625 27.5 C8.07539062 28.35174805 8.08828125 29.20349609 8.1015625 30.08105469 C8.32252788 39.51696691 9.32156702 48.88413388 10.4375 58.25 C11.4275 58.25 12.4175 58.25 13.4375 58.25 C16.25934981 46.90530433 18.18274606 35.6943134 19.30981445 24.04882812 C19.41511475 23.06333984 19.52041504 22.07785156 19.62890625 21.0625 C19.71342041 20.18207031 19.79793457 19.30164063 19.88500977 18.39453125 C20.4375 16.25 20.4375 16.25 23.4375 14.25 C25.96316006 14.05461333 28.35292102 13.97098279 30.875 14 C32.85306641 13.99226562 32.85306641 13.99226562 34.87109375 13.984375 C38.0739784 14.22292501 39.78608447 14.5411593 42.4375 16.25 C42.39109375 17.02859375 42.3446875 17.8071875 42.296875 18.609375 C41.96701153 28.83514244 43.79117432 38.08307218 45.97998047 48.02294922 C46.60922705 51.08590937 47.04099909 54.14894551 47.4375 57.25 C48.4275 57.25 49.4175 57.25 50.4375 57.25 C50.623125 55.50396484 50.623125 55.50396484 50.8125 53.72265625 C51.32824567 49.59033485 52.31760802 45.70181867 53.4375 41.6875 C57.10875337 27.86044202 57.10875337 27.86044202 55.25 14.0625 C53.56350922 11.19932597 53.56350922 11.19932597 51.1875 9.125 C50.32125 8.196875 50.32125 8.196875 49.4375 7.25 C49.828125 4.6328125 49.828125 4.6328125 50.4375 2.25 C57.19310636 0.72760983 63.31916167 -0.39063041 70.25 0.6875 C73.12551766 2.74144119 73.81916343 4.84691063 74.421875 8.2734375 C74.46506946 16.50198279 71.86670418 25.38413335 67.4375 32.25 C66.71090425 34.09951645 65.99054965 35.95214621 65.32421875 37.82421875 C64.65560939 39.65332189 63.94195552 41.46605042 63.20703125 43.26953125 C58.46640066 54.98903737 54.51928121 68.03442405 59.4375 80.25 C59.0625 83.5625 59.0625 83.5625 58.4375 86.25 C52.70724564 87.53930723 47.21967407 87.78019574 41.9375 84.875 C40.4375 83.25 40.4375 83.25 40.4375 80.25 C39.7775 80.25 39.1175 80.25 38.4375 80.25 C36.06389921 71.0809127 33.90057442 61.92529918 32.09765625 52.625 C31.28704565 48.48081329 30.37641024 44.36676027 29.4375 40.25 C27.35645041 45.22642294 26.08209766 49.49266169 25.74609375 54.87890625 C25.4375 57.25 25.4375 57.25 24.390625 60.546875 C23.34243389 64.61935523 23.39939064 67.75975715 23.75 71.9375 C23.84925781 73.22011719 23.94851562 74.50273437 24.05078125 75.82421875 C24.33793242 79.09648714 24.33793242 79.09648714 25.05078125 81.6015625 C25.17839844 82.14554687 25.30601563 82.68953125 25.4375 83.25 C23.99699031 85.41076453 22.8294447 86.11935177 20.375 86.9375 C8.97013708 88.15078329 8.97013708 88.15078329 5.14453125 85.90234375 C3.4375 84.25 3.4375 84.25 3.1875 81.5625 C3.27 80.799375 3.3525 80.03625 3.4375 79.25 C2.7775 79.25 2.1175 79.25 1.4375 79.25 C1.1075 76.61 0.7775 73.97 0.4375 71.25 C-0.2225 71.25 -0.8825 71.25 -1.5625 71.25 C-1.61148438 70.39277344 -1.66046875 69.53554687 -1.7109375 68.65234375 C-2.11107385 62.53301716 -2.69757019 57.07790566 -4.5625 51.25 C-4.89583333 48.91666667 -5.22916667 46.58333333 -5.5625 44.25 C-5.87316406 43.23679688 -6.18382812 42.22359375 -6.50390625 41.1796875 C-8.12982465 35.63485127 -8.63359216 29.88431407 -9.33007812 24.1640625 C-10.01911863 18.92583195 -11.07096352 14.15759777 -12.89404297 9.19311523 C-13.78970393 6.58954856 -14.21315022 3.97492825 -14.5625 1.25 C-9.66965894 0.28849082 -4.96579399 0.0346955 0 0 Z " fill="#E9E9E9" transform="translate(48.5625,140.75)"/>
<path d="M0 0 C1.30692055 -0.00074776 1.30692055 -0.00074776 2.64024353 -0.00151062 C4.47673837 0.00082375 6.31323677 0.01051465 8.1496582 0.02709961 C10.95878715 0.0507303 13.7669685 0.04765096 16.57617188 0.04101562 C18.3632869 0.04659163 20.15039794 0.05370102 21.9375 0.0625 C22.77612076 0.06158859 23.61474152 0.06067719 24.47877502 0.05973816 C25.65535927 0.07403618 25.65535927 0.07403618 26.85571289 0.08862305 C27.88566124 0.09553413 27.88566124 0.09553413 28.93641663 0.10258484 C31.31368062 0.41782755 32.87085613 1.09329723 34.90234375 2.36328125 C37.14284283 5.72402987 36.89508146 7.16142367 36.7734375 11.046875 C36.96717893 14.52834986 38.08829399 17.60138146 39.24609375 20.87109375 C40.04968406 23.92282364 40.29938221 26.22006009 39.90234375 29.36328125 C37.93359375 31.69921875 37.93359375 31.69921875 35.40234375 33.73828125 C34.56703125 34.42664063 33.73171875 35.115 32.87109375 35.82421875 C32.22140625 36.33210938 31.57171875 36.84 30.90234375 37.36328125 C31.64484375 38.08515625 32.38734375 38.80703125 33.15234375 39.55078125 C39.90234375 46.45419034 39.90234375 46.45419034 39.90234375 50.36328125 C40.56234375 50.36328125 41.22234375 50.36328125 41.90234375 50.36328125 C44.66761028 59.94953856 46.80288269 70.14602208 41.90234375 79.36328125 C38.15781843 84.89073501 34.92150192 85.59303936 28.58886719 86.84912109 C22.39046295 87.71361376 16.27579224 87.75680366 10.02734375 87.67578125 C8.76148438 87.67900391 7.495625 87.68222656 6.19140625 87.68554688 C-8.86236092 87.59857658 -8.86236092 87.59857658 -12.09765625 84.36328125 C-12.13846408 82.36369761 -12.14019981 80.36282871 -12.09765625 78.36328125 C-11.43765625 78.36328125 -10.77765625 78.36328125 -10.09765625 78.36328125 C-9.09593338 66.3795067 -8.9876716 54.49775873 -9.22973633 42.47949219 C-9.28545836 39.47197515 -9.31372001 36.46491765 -9.34179688 33.45703125 C-9.37722224 31.51168735 -9.41427406 29.56637225 -9.453125 27.62109375 C-9.45967354 26.29732224 -9.45967354 26.29732224 -9.46635437 24.94680786 C-9.62167473 19.2031924 -10.82897941 14.79887812 -13.24531555 9.58078003 C-14.09765625 7.36328125 -14.09765625 7.36328125 -14.09765625 3.36328125 C-9.88444929 -0.40469236 -5.33735322 -0.05875673 0 0 Z M6.90234375 17.36328125 C5.22215388 22.28250381 5.74878512 27.36452721 6.90234375 32.36328125 C10.78770546 31.79938805 13.35458461 30.69638681 16.58984375 28.48828125 C17.35683594 27.97523438 18.12382812 27.4621875 18.9140625 26.93359375 C21.77772736 24.67191737 22.82404747 22.98965152 23.27734375 19.36328125 C23.18728173 16.32064139 23.18728173 16.32064139 21.21484375 14.48828125 C16.05683123 11.97897786 10.89909995 13.33429315 6.90234375 17.36328125 Z M10.90234375 44.36328125 C6.2069089 50.23257481 5.08411369 55.92867362 5.90234375 63.36328125 C7.02932128 67.04425332 8.76581072 70.1584817 10.90234375 73.36328125 C14.76302547 74.39279638 18.13190913 74.82956138 21.90234375 73.36328125 C23.27701 70.88692113 23.27701 70.88692113 23.90234375 68.36328125 C24.56234375 68.36328125 25.22234375 68.36328125 25.90234375 68.36328125 C28.01973543 62.0111062 27.22098714 54.60578269 24.90234375 48.36328125 C22.72127228 45.60824361 21.07406053 43.91252349 17.90234375 42.42578125 C14.9980184 42.33502108 13.43233871 42.90853415 10.90234375 44.36328125 Z " fill="#EAEAEA" transform="translate(203.09765625,140.63671875)"/>
<path d="M0 0 C0 0.66 0 1.32 0 2 C0.66 2 1.32 2 2 2 C5.06829183 7.70571715 7.0785639 13.09698763 8.625 19.375 C8.83954834 20.21788574 9.05409668 21.06077148 9.27514648 21.92919922 C10.48035245 26.71944116 11.58515728 31.51098035 12.47265625 36.37109375 C13.05278663 39.26315112 13.75397113 42.11883018 14.4597168 44.98242188 C21.0458211 71.86253669 21.0458211 71.86253669 18 81 C11.95650556 85.02899629 2.08202189 84.91521514 -5 84 C-7 81 -7 81 -7 77 C-6.34 77 -5.68 77 -5 77 C-4.24679003 74.83075529 -3.514481 72.65786703 -2.80859375 70.47265625 C-2.14582367 68.44592456 -1.42466393 66.43837352 -0.6875 64.4375 C0.96658939 57.69811102 -0.44901833 48.10874091 -2.890625 41.640625 C-4.06196302 39.6852958 -4.06196302 39.6852958 -7 38 C-7 37.34 -7 36.68 -7 36 C-11.79833205 35.05915058 -14.57750413 34.91159917 -19 37 C-19.99 37 -20.98 37 -22 37 C-22 37.66 -22 38.32 -22 39 C-24.375 41.625 -24.375 41.625 -27 44 C-27.66 44 -28.32 44 -29 44 C-29 45.65 -29 47.3 -29 49 C-29.66 49 -30.32 49 -31 49 C-30.835 49.495 -30.67 49.99 -30.5 50.5 C-30 53 -30 53 -30.0625 56.6875 C-30.1045312 61.16802621 -29.82038192 65.86120716 -28 70 C-26.68339669 70.69912656 -25.34990611 71.36756367 -24 72 C-23.67 72.99 -23.34 73.98 -23 75 C-20.98491642 75.73323796 -20.98491642 75.73323796 -19 76 C-18.06576355 79.01031744 -17.95550089 79.86650268 -19 83 C-26.52292844 84.40488423 -34.46811189 85.29502564 -41.75 82.625 C-44 81 -44 81 -45 79 C-45.64063802 69.61097717 -45.40155488 61.55276251 -41.94140625 52.69140625 C-41.00717192 50.02050396 -40.67380571 47.81208732 -40.5 45 C-40.24545974 41.02917196 -39.33854227 37.74791837 -38 34 C-36.08004855 28.60056975 -35.3736819 23.68389843 -35 18 C-34.5 14.5 -34.5 14.5 -34 11 C-34 10.01 -34 9.02 -34 8 C-35.65 8 -37.3 8 -39 8 C-39.33 9.65 -39.66 11.3 -40 13 C-42.31 13 -44.62 13 -47 13 C-48.44430855 10.11138291 -48.37688506 8.20352299 -48 5 C-44.92864175 0.59771984 -41.31027365 -1.16625797 -36.26953125 -2.50390625 C-26.24639411 -4.02474068 -8.5782952 -5.71886347 0 0 Z M-22 16 C-23.04555905 18.96324319 -23.60666866 21.88725719 -24 25 C-18.63486869 24.152874 -13.3212615 23.08318169 -8 22 C-7.91903197 20.54257537 -7.86082226 19.08387193 -7.8125 17.625 C-7.77769531 16.81289062 -7.74289062 16.00078125 -7.70703125 15.1640625 C-7.80371094 14.44992188 -7.90039062 13.73578125 -8 13 C-13.55063684 9.29957544 -18.00807265 10.71763087 -22 16 Z " fill="#E7E7E7" transform="translate(375,144)"/>
<path d="M0 0 C1.12148438 -0.01417969 2.24296875 -0.02835938 3.3984375 -0.04296875 C6.57384842 0.18384632 8.76734718 0.83359332 11.625 2.1875 C11.07644652 6.758779 10.20755197 10.86185795 8.625 15.1875 C7.965 15.1875 7.305 15.1875 6.625 15.1875 C6.85260307 17.48149934 7.10778879 19.77277637 7.375 22.0625 C7.51421875 23.33867187 7.6534375 24.61484375 7.796875 25.9296875 C8.27837419 29.24178249 8.27837419 29.24178249 10.5625 30.65625 C12.96057025 31.27393476 14.31499399 31.01250215 16.625 30.1875 C16.955 28.8675 17.285 27.5475 17.625 26.1875 C18.285 26.1875 18.945 26.1875 19.625 26.1875 C20.94984361 20.38138599 20.94984361 20.38138599 22.09765625 14.5390625 C23.70919811 5.51984501 23.70919811 5.51984501 26.625 2.1875 C32.40055618 -0.7707117 39.64209807 -0.76702862 45.75 1.1875 C46.678125 1.6825 46.678125 1.6825 47.625 2.1875 C47.48573348 7.7581609 45.13897525 10.11349053 41.5390625 13.97265625 C37.15611091 19.04435738 33.98867618 24.93984887 31.625 31.1875 C30.305 31.1875 28.985 31.1875 27.625 31.1875 C26.965 33.1675 26.305 35.1475 25.625 37.1875 C26.32625 37.290625 27.0275 37.39375 27.75 37.5 C31.64937433 38.43245908 35.52347224 39.47393471 37.77929688 42.9831543 C38.74200361 45.49247276 38.91015883 47.46070187 38.96875 50.14453125 C38.99839844 51.09263672 39.02804687 52.04074219 39.05859375 53.01757812 C39.08050781 54.00177734 39.10242188 54.98597656 39.125 56 C39.26930933 62.40478754 39.52072868 68.10378011 41.625 74.1875 C42.615 73.8575 43.605 73.5275 44.625 73.1875 C44.13 68.7325 44.13 68.7325 43.625 64.1875 C45.8125 63 45.8125 63 48.625 62.1875 C51.375 63.375 51.375 63.375 53.625 65.1875 C54.69424537 68.39523612 54.79184956 70.81734818 54.8125 74.1875 C54.82667969 75.239375 54.84085937 76.29125 54.85546875 77.375 C54.625 80.1875 54.625 80.1875 52.625 83.1875 C48.10207947 85.7316428 42.74843464 86.24648691 37.625 86.1875 C33.99720485 84.82707682 33.00705476 83.9698026 31.3125 80.5 C30.9721875 79.3553125 30.9721875 79.3553125 30.625 78.1875 C29.965 78.1875 29.305 78.1875 28.625 78.1875 C28.24408203 76.66769531 28.24408203 76.66769531 27.85546875 75.1171875 C27.50816874 73.76553342 27.16049241 72.41397599 26.8125 71.0625 C26.64685547 70.39734375 26.48121094 69.7321875 26.31054688 69.046875 C25.20139079 64.77767044 23.6845859 61.11376293 21.625 57.1875 C21.33625 56.15625 21.0475 55.125 20.75 54.0625 C19.35838733 50.50615651 17.88760634 49.12952759 14.625 47.1875 C12.49340424 47.53510554 12.49340424 47.53510554 10.625 48.1875 C9.46282334 55.14485487 9.86450087 61.18402126 11.15234375 68.109375 C11.62494042 71.18711197 11.70410395 74.07918024 11.625 77.1875 C12.285 77.1875 12.945 77.1875 13.625 77.1875 C13.625 79.1675 13.625 81.1475 13.625 83.1875 C12.965 83.1875 12.305 83.1875 11.625 83.1875 C11.625 83.8475 11.625 84.5075 11.625 85.1875 C8.66632082 85.04703745 5.70817736 84.90037776 2.75 84.75 C1.90824219 84.71068359 1.06648438 84.67136719 0.19921875 84.63085938 C-0.60644531 84.58896484 -1.41210938 84.54707031 -2.2421875 84.50390625 C-2.98581543 84.46724854 -3.72944336 84.43059082 -4.49560547 84.39282227 C-6.375 84.1875 -6.375 84.1875 -8.375 83.1875 C-8.75474275 77.74452061 -8.75474275 77.74452061 -6.84375 74.94140625 C-4.88798409 71.27434516 -5.28134765 68.92325406 -5.6875 64.8125 C-5.81275385 63.38707819 -5.93374648 61.96127642 -6.05078125 60.53515625 C-6.11088379 59.81344238 -6.17098633 59.09172852 -6.23291016 58.34814453 C-6.53007361 53.82942192 -6.39413194 49.31062667 -6.3125 44.78515625 C-6.37270789 41.31943944 -6.71106456 38.00331644 -7.12548828 34.56811523 C-7.6446871 29.61438956 -7.73563194 24.62477993 -7.89257812 19.6484375 C-8.10097031 14.56838661 -8.74570777 9.9185098 -10.05493164 5 C-10.375 3.1875 -10.375 3.1875 -9.375 1.1875 C-6.0588381 0.0821127 -3.48963365 0.01996358 0 0 Z " fill="#E9E9E9" transform="translate(266.375,141.8125)"/>
<path d="M0 0 C5.95414438 5.95414438 8.69876311 11.00921997 10.6875 19.125 C10.86482666 19.83293701 11.04215332 20.54087402 11.22485352 21.27026367 C12.2939466 25.66553375 13.05931858 30.00687332 13.625 34.5 C14.48738123 40.82940349 16.7332717 46.06093542 19.6875 51.6875 C20.4655384 45.73849869 20.64469469 40.6433781 19.6875 34.6875 C19.66304625 33.06268401 19.66500216 31.43734425 19.6875 29.8125 C19.75674916 23.31297194 19.06081582 17.03908566 17.6875 10.6875 C17.34805205 8.68852872 17.01328384 6.68874361 16.6875 4.6875 C16.0275 4.6875 15.3675 4.6875 14.6875 4.6875 C15.0175 2.3775 15.3475 0.0675 15.6875 -2.3125 C21.91645086 -3.44503652 26.60498904 -3.01616626 32.6875 -1.3125 C33.9375 5.3125 33.9375 5.3125 31.6875 8.6875 C29.73623725 18.73390759 29.36422168 28.90933054 29.42675781 39.11474609 C29.43749985 41.18747165 29.42676347 43.25933112 29.4140625 45.33203125 C29.40451306 54.87248849 30.04629356 64.27872838 31.6875 73.6875 C32.0175 74.0175 32.3475 74.3475 32.6875 74.6875 C32.9375 77.625 32.9375 77.625 32.6875 80.6875 C28.47530736 83.49562843 25.05350737 83.4657892 20.0625 83.37109375 C14.90806037 82.32708109 12.59827551 79.82548969 9.42578125 75.765625 C7.00217794 71.47394093 6.00152043 67.31315292 5.22265625 62.47265625 C4.83630687 59.49066677 4.83630687 59.49066677 2.6875 56.6875 C1.99546416 53.22732078 1.4402647 49.77556157 0.91992188 46.28710938 C0.19376617 41.75766299 -0.92767107 37.72649911 -2.62817383 33.46655273 C-3.46803491 31.28315363 -3.98859364 29.10600339 -4.4375 26.8125 C-4.89203913 24.52385562 -5.2665858 22.77932841 -6.3125 20.6875 C-6.48331776 24.29148212 -6.64836608 27.89570779 -6.8125 31.5 C-6.86019531 32.50482422 -6.90789063 33.50964844 -6.95703125 34.54492188 C-8.28646626 54.15821901 -8.28646626 54.15821901 -3.23828125 72.74609375 C-2.14366233 75.04156043 -1.54287042 77.1534254 -1.3125 79.6875 C-1.6425 80.3475 -1.9725 81.0075 -2.3125 81.6875 C-4.70155273 82.18521932 -6.89287428 82.48961239 -9.3125 82.6875 C-10.44558594 82.80351562 -10.44558594 82.80351562 -11.6015625 82.921875 C-16.13523232 83.19480496 -17.7166457 83.17391167 -21.375 80.1875 C-22.3340625 78.95 -22.3340625 78.95 -23.3125 77.6875 C-23.01472656 77.10871094 -22.71695313 76.52992188 -22.41015625 75.93359375 C-19.00689752 68.96963016 -17.91532108 62.42882994 -17.5234375 54.703125 C-17.3125 51.6875 -17.3125 51.6875 -16.80078125 49.4140625 C-16.05050312 45.22450941 -16.1281094 41.05994625 -16.125 36.8125 C-16.11275391 35.93980469 -16.10050781 35.06710938 -16.08789062 34.16796875 C-16.0761059 28.94340683 -16.73058908 24.70860244 -18.3125 19.6875 C-18.71193088 17.13166447 -19.0659689 14.5683341 -19.375 12 C-19.92681664 7.13960888 -19.92681664 7.13960888 -20.9375 2.3671875 C-21.3125 0.6875 -21.3125 0.6875 -20.25 -1.5 C-14.82535054 -6.57467208 -5.36117912 -4.30251591 0 0 Z " fill="#E4E4E4" transform="translate(574.3125,145.3125)"/>
<path d="M0 0 C1.95433126 -0.06170718 3.9087629 -0.12031541 5.86328125 -0.17578125 C6.79438721 -0.22250977 7.72549316 -0.26923828 8.68481445 -0.31738281 C13.48345134 -0.39174677 16.60107639 -0.08560355 20.42578125 2.96484375 C23.05445525 5.59390661 24.35102722 7.69462954 24.86328125 11.44921875 C25.064375 12.70798828 25.064375 12.70798828 25.26953125 13.9921875 C25.36328125 16.26171875 25.36328125 16.26171875 24.36328125 19.26171875 C21.0195465 18.70442962 18.33015126 17.90997986 15.36328125 16.26171875 C15.36328125 15.60171875 15.36328125 14.94171875 15.36328125 14.26171875 C11.70716081 11.92180167 8.63120749 11.88733926 4.36328125 12.26171875 C1.59886156 13.66931216 1.59886156 13.66931216 -0.63671875 15.26171875 C-1.29671875 15.26171875 -1.95671875 15.26171875 -2.63671875 15.26171875 C-4.66891363 18.66523213 -5.00562914 21.58501145 -5.26171875 25.51171875 C-5.33648437 26.589375 -5.41125 27.66703125 -5.48828125 28.77734375 C-5.53726563 29.5971875 -5.58625 30.41703125 -5.63671875 31.26171875 C-1.67671875 30.76671875 -1.67671875 30.76671875 2.36328125 30.26171875 C2.69328125 29.27171875 3.02328125 28.28171875 3.36328125 27.26171875 C7.10522547 25.39074664 11.29760906 25.59833767 15.36328125 26.26171875 C19.61613926 30.20339203 19.94531969 34.66518511 20.3828125 40.1875 C20.36328125 42.26171875 20.36328125 42.26171875 19.36328125 43.26171875 C17.65093259 43.14321711 15.94252086 42.96604176 14.23828125 42.76171875 C7.73207248 42.08622409 7.73207248 42.08622409 1.36328125 43.26171875 C-3.45943753 49.35357405 -4.08473705 55.99720305 -3.32421875 63.57421875 C-2.70496527 67.77772923 -2.70496527 67.77772923 -0.63671875 71.26171875 C3.36406493 72.954358 5.56036044 73.46609859 9.80078125 72.38671875 C10.64640625 72.01546875 11.49203125 71.64421875 12.36328125 71.26171875 C12.43755963 67.91919151 12.42875078 65.45812735 11.36328125 62.26171875 C10.70328125 62.26171875 10.04328125 62.26171875 9.36328125 62.26171875 C9.32056025 60.5955997 9.32264293 58.9278899 9.36328125 57.26171875 C11.78327269 54.84172731 17.10538892 55.34771901 20.36328125 55.26171875 C24.36521529 56.26220226 25.03560302 56.77020141 27.36328125 60.26171875 C27.69799805 62.48242187 27.69799805 62.48242187 27.8125 65.04296875 C27.85568359 65.96722656 27.89886719 66.89148438 27.94335938 67.84375 C27.97880859 68.80667969 28.01425781 69.76960938 28.05078125 70.76171875 C28.09783203 71.72464844 28.14488281 72.68757813 28.19335938 73.6796875 C28.49861578 80.85571516 28.49861578 80.85571516 27.36328125 84.26171875 C21.98866797 88.05139665 16.60020222 87.64477583 10.30078125 87.51171875 C8.8302832 87.50398438 8.8302832 87.50398438 7.33007812 87.49609375 C2.84644591 87.4473917 -1.24188088 87.17639666 -5.63671875 86.26171875 C-7.44924439 86.24325051 -9.26256287 86.26511508 -11.07421875 86.32421875 C-15.33609388 86.37605237 -18.66947053 85.97728555 -22.63671875 84.26171875 C-22.84375363 80.54156084 -22.38760906 78.45174068 -20.63671875 75.19921875 C-16.17529197 64.66835977 -18.30528595 50.99737976 -19.359375 39.87890625 C-19.58962193 36.87596744 -19.7282646 33.90350944 -19.8203125 30.89453125 C-19.85261963 29.92692871 -19.88492676 28.95932617 -19.91821289 27.96240234 C-19.97893106 26.0463717 -20.02948887 24.12998219 -20.06811523 22.21337891 C-20.226256 17.54466087 -20.68832798 13.72159316 -22.36328125 9.33984375 C-23.74670319 5.56312291 -23.74670319 5.56312291 -22.71875 2.74609375 C-18.51660092 -0.24980991 -13.06464972 0.42331619 -8.07177734 0.32177734 C-5.3785601 0.25535149 -2.69106746 0.12581024 0 0 Z " fill="#E8E8E8" transform="translate(152.63671875,140.73828125)"/>
<path d="M0 0 C1.94616211 -0.0309375 1.94616211 -0.0309375 3.93164062 -0.0625 C10.54772212 -0.0896012 15.7555857 -0.07824651 21.5625 3.25 C21.5625 3.91 21.5625 4.57 21.5625 5.25 C22.5525 5.58 23.5425 5.91 24.5625 6.25 C24.75716332 8.04090253 24.94301213 9.83276505 25.125 11.625 C25.28162109 13.12160156 25.28162109 13.12160156 25.44140625 14.6484375 C25.5625 17.25 25.5625 17.25 24.5625 19.25 C22.9125 19.25 21.2625 19.25 19.5625 19.25 C19.5625 18.59 19.5625 17.93 19.5625 17.25 C17.0875 16.26 17.0875 16.26 14.5625 15.25 C14.5625 14.59 14.5625 13.93 14.5625 13.25 C10.98615687 12.05788562 8.32185317 11.99073426 4.5625 12.25 C1.79808031 13.65759341 1.79808031 13.65759341 -0.4375 15.25 C-1.0975 15.25 -1.7575 15.25 -2.4375 15.25 C-2.7675 16.57 -3.0975 17.89 -3.4375 19.25 C-4.0975 19.25 -4.7575 19.25 -5.4375 19.25 C-5.4375 23.21 -5.4375 27.17 -5.4375 31.25 C-1.29587086 30.78981898 0.81067824 30.39493915 3.5625 27.25 C7.29637138 26.00537621 10.69836463 25.46662753 14.5625 26.25 C18.25040229 29.46710625 19.29257709 31.13174794 20.4375 35.875 C20.54420442 38.75601944 20.32958685 40.54749404 19.5625 43.25 C18.29792969 43.20359375 17.03335938 43.1571875 15.73046875 43.109375 C14.07033609 43.07185788 12.41017792 43.03545765 10.75 43 C9.91662109 42.96648437 9.08324219 42.93296875 8.22460938 42.8984375 C3.44451635 42.67901724 3.44451635 42.67901724 -0.44921875 45.078125 C-2.42007411 49.40933284 -2.57186682 52.82757374 -2.5625 57.5625 C-2.56507813 58.85800781 -2.56765625 60.15351563 -2.5703125 61.48828125 C-2.45177685 64.84562923 -2.08052729 67.9583127 -1.4375 71.25 C3.29280752 72.47637602 7.65029315 73.39034877 12.5625 73.25 C12.64346803 71.79257537 12.70167774 70.33387193 12.75 68.875 C12.78480469 68.06289062 12.81960938 67.25078125 12.85546875 66.4140625 C12.75878906 65.69992188 12.66210938 64.98578125 12.5625 64.25 C11.5725 63.59 10.5825 62.93 9.5625 62.25 C9.8925 60.27 10.2225 58.29 10.5625 56.25 C12.64247826 55.9734711 14.7268308 55.72969925 16.8125 55.5 C17.97265625 55.36078125 19.1328125 55.2215625 20.328125 55.078125 C23.5625 55.25 23.5625 55.25 25.9375 57.00390625 C29.41958639 61.81688624 28.66460415 68.45188088 28.5 74.171875 C28.5649921 76.33286216 29.03291955 78.16231507 29.5625 80.25 C29.125 82.3125 29.125 82.3125 27.5625 84.25 C21.32886424 87.14167528 16.18800317 87.66257726 9.375 87.5 C8.49908203 87.49484375 7.62316406 87.4896875 6.72070312 87.484375 C2.51656508 87.43337712 -1.3188767 87.1249407 -5.4375 86.25 C-8.46449509 86.22182318 -11.47465256 86.31368471 -14.5 86.41015625 C-17.56250328 86.24318466 -19.67727926 85.54385347 -22.4375 84.25 C-22.65102831 80.43223192 -22.09061963 78.0273095 -20.4609375 74.58984375 C-18.20020598 69.17745694 -17.90027544 64.62419496 -18.0625 58.8125 C-18.07539063 57.82056641 -18.08828125 56.82863281 -18.1015625 55.80664062 C-18.39471157 40.60869339 -19.45432324 25.41602443 -20.4375 10.25 C-21.0975 10.25 -21.7575 10.25 -22.4375 10.25 C-23.76683579 4.81180812 -23.76683579 4.81180812 -22.375 2.4375 C-16.22174348 -1.33385077 -6.9382687 0.0274919 0 0 Z " fill="#E8E8E8" transform="translate(515.4375,140.75)"/>
<path d="M0 0 C0.9075 -0.20625 1.815 -0.4125 2.75 -0.625 C7.16540787 -1.13447014 9.12300257 -0.12854761 13 2 C14.10370043 5.3111013 13.92673641 7.24748949 13.5625 10.6875 C13.46066406 11.68136719 13.35882813 12.67523438 13.25390625 13.69921875 C13.17011719 14.45847656 13.08632813 15.21773437 13 16 C12.34 16 11.68 16 11 16 C10.505 18.475 10.505 18.475 10 21 C9.34 21 8.68 21 8 21 C7.75121094 21.56847656 7.50242187 22.13695312 7.24609375 22.72265625 C5.81237596 25.3428991 4.0959096 27.252626 2.0625 29.4375 C-0.75248638 32.46295266 -2.96304392 35.40256879 -5 39 C-5.474375 39.763125 -5.94875 40.52625 -6.4375 41.3125 C-6.953125 42.199375 -7.46875 43.08625 -8 44 C-8.33620361 44.54229248 -8.67240723 45.08458496 -9.01879883 45.64331055 C-12.24848263 51.31880312 -12.49316061 56.06559607 -12.25 62.5 C-12.22292969 63.87671875 -12.22292969 63.87671875 -12.1953125 65.28125 C-12.14863102 67.52196092 -12.08318522 69.76039799 -12 72 C-10.57433179 72.20291256 -9.14685881 72.39316945 -7.71875 72.578125 C-6.92404297 72.68543945 -6.12933594 72.79275391 -5.31054688 72.90332031 C-1.87565749 73.04704561 0.22806666 71.94035334 3 70 C3.495 68.515 3.495 68.515 4 67 C4.99 67 5.98 67 7 67 C7.66 65.35 8.32 63.7 9 62 C10.32 62 11.64 62 13 62 C14.56424629 65.12849259 14.18446398 68.44430084 14.1875 71.875 C14.20586914 72.95587891 14.20586914 72.95587891 14.22460938 74.05859375 C14.24436384 81.20970982 14.24436384 81.20970982 12 84 C8.23635651 85.85227523 5.19678196 86.2471243 1.02734375 86.23046875 C-0.69452148 86.22756836 -0.69452148 86.22756836 -2.45117188 86.22460938 C-3.64291016 86.21236328 -4.83464844 86.20011719 -6.0625 86.1875 C-7.22716797 86.18685547 -8.39183594 86.18621094 -9.59179688 86.18554688 C-30.37801054 86.08132631 -30.37801054 86.08132631 -35 83 C-35 82.34 -35 81.68 -35 81 C-35.66 81 -36.32 81 -37 81 C-37.45301928 72.39263369 -36.87748929 61.31623393 -32 54 C-31.34 54 -30.68 54 -30 54 C-29.9175 53.46375 -29.835 52.9275 -29.75 52.375 C-28.72418729 49.12659309 -27.03436106 46.71248141 -25 44 C-24.34 44 -23.68 44 -23 44 C-22.9175 43.46375 -22.835 42.9275 -22.75 42.375 C-21.72418729 39.12659309 -20.03436106 36.71248141 -18 34 C-17.34 34 -16.68 34 -16 34 C-15.71125 33.401875 -15.4225 32.80375 -15.125 32.1875 C-14 30 -14 30 -12 27 C-11.01 27 -10.02 27 -9 27 C-8.87625 26.401875 -8.7525 25.80375 -8.625 25.1875 C-8 23 -8 23 -6 20 C-5.34 20 -4.68 20 -4 20 C-4 16.7 -4 13.4 -4 10 C-9.65796747 8.70338245 -13.88963293 9.03951149 -19 12 C-19.99 13.485 -19.99 13.485 -21 15 C-21.99 15 -22.98 15 -24 15 C-24.2475 15.763125 -24.495 16.52625 -24.75 17.3125 C-26.13563292 20.29161079 -27.11046627 21.47024685 -30 23 C-32.1875 22.8125 -32.1875 22.8125 -34 22 C-35.27959591 19.44080818 -35.16816536 17.54515972 -35.1875 14.6875 C-35.20167969 13.74261719 -35.21585937 12.79773438 -35.23046875 11.82421875 C-34.98824335 8.85593118 -34.24026607 6.69132835 -33 4 C-32.34 4 -31.68 4 -31 4 C-30.67 3.01 -30.34 2.02 -30 1 C-8.82089552 -2.94029851 -8.82089552 -2.94029851 0 0 Z " fill="#E6E6E6" transform="translate(470,142)"/>
<path d="M0 0 C2.625 0.3125 2.625 0.3125 5.0625 1.8125 C7.41329768 5.57377628 6.48094505 8.03277476 5.625 12.3125 C4.965 12.3125 4.305 12.3125 3.625 12.3125 C2.95250914 26.30961037 2.50713694 40.2998071 2.4375 54.3125 C2.41816406 56.17865967 2.41816406 56.17865967 2.3984375 58.08251953 C2.39094547 64.99672482 2.65787121 71.6397084 4.625 78.3125 C5.12 78.8075 5.12 78.8075 5.625 79.3125 C5.8125 81.75 5.8125 81.75 5.625 84.3125 C3.625 86.3125 3.625 86.3125 0.54296875 86.578125 C-0.68808594 86.57296875 -1.91914063 86.5678125 -3.1875 86.5625 C-4.41082031 86.56765625 -5.63414062 86.5728125 -6.89453125 86.578125 C-10.18266273 86.32717894 -12.42575369 85.72813823 -15.375 84.3125 C-15.23320312 83.09691406 -15.09140625 81.88132812 -14.9453125 80.62890625 C-13.15827064 64.46659659 -11.79769 48.52866464 -13.375 32.3125 C-13.5022234 29.66677265 -13.62723683 27.02093806 -13.75 24.375 C-14.07737091 19.19708336 -14.94456297 14.9347405 -16.796875 10.11328125 C-17.625975 7.53074679 -17.4263532 5.79068969 -16.375 3.3125 C-11.43399935 0.01849956 -5.79378573 0.53646164 0 0 Z " fill="#E9E9E9" transform="translate(418.375,140.6875)"/>
<path d="M0 0 C0.66 0 1.32 0 2 0 C2.19658808 1.41543415 2.38187546 2.83244031 2.5625 4.25 C2.66691406 5.03890625 2.77132812 5.8278125 2.87890625 6.640625 C3.00027349 9.00532874 2.69633257 10.7511037 2 13 C0.54815522 8.46298506 -0.23509196 4.81938524 0 0 Z " fill="#868686" transform="translate(84,205)"/>
</svg>
